<svg xmlns="http://www.w3.org/2000/svg" display="none" version="1.1">
  <symbol id="dribbble" viewBox="0 0 20 20">
    <path fill="#ea4c89" d="M10 20C4.486 20 0 15.514 0 10S4.486 0 10 0s10 4.486 10 10-4.486 10-10 10zM9.462 7.205c-1.354-2.398-2.8-4.418-3.09-4.82C4.042 3.498 2.3 5.643 1.74 8.225h.084c.778 0 4.003-.064 7.636-1.02zm2.005 4.253c-4.627 1.612-6.38 4.77-6.62 5.245C6.275 17.803 8.06 18.46 10 18.46c1.156 0 2.258-.233 3.263-.655-.135-.786-.627-3.325-1.786-6.35-.004 0-.006.002-.01.003zm4.1-7.794c-1.488-1.306-3.437-2.1-5.567-2.1-.655 0-1.293.077-1.905.22.343.464 1.79 2.463 3.108 4.88 2.85-1.08 4.128-2.678 4.363-3zm-4.99 6.375l.282-.09c-.21-.45-.42-.91-.65-1.35-3.75 1.11-7.39 1.2-8.44 1.2-.1 0-.17 0-.22-.01-.01.07-.01.14-.01.21 0 2.14.8 4.1 2.12 5.59.354-.59 2.68-4.206 6.9-5.57zm2.588 1c1.05 2.9 1.506 5.28 1.62 5.93 1.85-1.28 3.167-3.27 3.55-5.58-.322-.1-1.703-.49-3.468-.49-.54 0-1.112.03-1.702.12zM11.9 8.01c.19.39.373.786.543 1.185l.17.405c.653-.08 1.305-.112 1.925-.112 1.92 0 3.53.3 3.908.38-.032-1.946-.726-3.735-1.867-5.15-.3.383-1.73 2.076-4.68 3.296z"/>
  </symbol>
  <symbol id="github" viewBox="0 0 20 20">
    <path fill="#333" d="M10 0C4.477 0 0 4.59 0 10.253c0 4.53 2.865 8.373 6.84 9.73.5.093.68-.223.68-.495 0-.243-.007-.888-.012-1.744-2.782.62-3.37-1.374-3.37-1.374-.453-1.185-1.11-1.5-1.11-1.5-.907-.636.07-.624.07-.624 1.003.073 1.53 1.057 1.53 1.057.893 1.567 2.342 1.114 2.912.852.09-.662.35-1.114.635-1.37-2.22-.26-4.555-1.14-4.555-5.068 0-1.12.39-2.035 1.03-2.75-.104-.26-.447-1.303.097-2.715 0 0 .84-.275 2.75 1.052.797-.228 1.653-.342 2.503-.346.85.004 1.705.118 2.504.346 1.91-1.327 2.747-1.052 2.747-1.052.55 1.412.21 2.455.1 2.714.65.716 1.03 1.632 1.03 2.75 0 3.94-2.34 4.807-4.56 5.06.36.317.68.943.68 1.9 0 1.37-.01 2.476-.01 2.812 0 .274.18.593.69.493 3.96-1.35 6.82-5.19 6.82-9.72C20 4.59 15.53 0 10 0"/>
  </symbol>
  <symbol id="codepen" fill-rule="evenodd" viewBox="0 0 20 20">
    <path fill="#111" d="M10 0C4.477 0 0 4.477 0 10s4.477 10 10 10 10-4.477 10-10S15.523 0 10 0zm5.12 10.89L13.79 10l1.33-.89v1.78zm-4.59 3.77v-2.48l2.305-1.54 1.86 1.243-4.164 2.776zM10 11.256L8.12 10 10 8.743 11.88 10 10 11.257zm-.53 3.402L5.305 11.88l1.86-1.242 2.304 1.54v2.48zM4.88 9.11l1.33.89-1.33.89V9.11zm4.59-3.77v2.48L7.164 9.36l-1.86-1.243L9.47 5.34zm1.06 0l4.165 2.777-1.86 1.244-2.304-1.54V5.34zm5.648 2.707c0-.008-.003-.015-.004-.023-.003-.015-.005-.03-.01-.045 0-.01-.005-.02-.007-.03l-.014-.04-.012-.03c0-.02-.01-.03-.01-.04l-.01-.03-.02-.036-.02-.024-.02-.03-.02-.02c-.01-.01-.02-.016-.03-.024l-.024-.02c-.005 0-.007-.005-.01-.007L10.298 3.9c-.18-.12-.41-.12-.59 0L4.052 7.675l-.008.007c-.01.01-.016.017-.024.02l-.03.028-.02.02c-.01.01-.02.02-.02.03l-.02.02-.02.03-.01.026-.02.035c-.003.01-.01.02-.01.03-.006.01-.01.03-.015.04l-.01.03-.01.05v.023c-.004.023-.006.046-.006.07v3.856l.01.043.01.023.013.04.01.02c.005.01.01.025.017.037l.015.024.027.037c.004.01.01.02.02.026l.023.03.02.02c.01.01.02.014.03.022l.027.02.006.006 5.65 3.77c.09.06.19.09.295.09.105 0 .207-.03.297-.09l5.652-3.77c0-.004.003-.007.006-.008.01-.005.015-.01.02-.02l.03-.023.02-.02.028-.03.016-.027c.01-.01.017-.02.024-.032l.014-.02.02-.035.015-.025.017-.04.008-.025.01-.047.002-.02.002-.07V8.11c0-.022 0-.045-.004-.07z"/>
  </symbol>
  <symbol id="twitter" viewBox="0 0 20 17">
    <path fill="#55acee" d="M6.29 17c-2.317 0-4.474-.71-6.29-1.928.32.04.648.06.98.06 1.92 0 3.69-.686 5.095-1.837-1.796-.035-3.31-1.276-3.833-2.98.25.05.507.076.772.076.374 0 .736-.05 1.08-.15C2.22 9.85.804 8.12.804 6.04v-.06c.554.32 1.187.513 1.86.535-1.1-.77-1.826-2.083-1.826-3.572 0-.786.202-1.524.555-2.157C3.416 3.382 6.44 5.09 9.85 5.27c-.07-.314-.107-.642-.107-.978C9.743 1.922 11.58 0 13.847 0c1.18 0 2.246.52 2.995 1.355.935-.192 1.813-.55 2.605-1.04-.306 1-.956 1.842-1.804 2.373.83-.104 1.62-.334 2.357-.676-.55.86-1.246 1.617-2.047 2.222.007.184.01.37.01.555C17.963 10.46 13.838 17 6.29 17"/>
  </symbol>
  <symbol id="mastodon" viewBox="0 0 24 24">
    <path fill="#3088D4" d="M23.193 7.879c0-5.206-3.411-6.732-3.411-6.732C18.062.357 15.108.025 12.041 0h-.076c-3.068.025-6.02.357-7.74 1.147 0 0-3.411 1.526-3.411 6.732 0 1.192-.023 2.618.015 4.129.124 5.092.934 10.109 5.641 11.355 2.17.574 4.034.695 5.535.612 2.722-.15 4.25-.972 4.25-.972l-.09-1.975s-1.945.613-4.129.539c-2.165-.074-4.449-.233-4.799-2.891a5.499 5.499 0 0 1-.048-.745s2.125.52 4.817.643c1.646.075 3.19-.097 4.758-.283 3.007-.359 5.625-2.212 5.954-3.905.517-2.665.475-6.507.475-6.507zm-4.024 6.709h-2.497V8.469c0-1.29-.543-1.944-1.628-1.944-1.2 0-1.802.776-1.802 2.312v3.349h-2.483v-3.35c0-1.536-.602-2.312-1.802-2.312-1.085 0-1.628.655-1.628 1.944v6.119H4.832V8.284c0-1.289.328-2.313.987-3.07.68-.758 1.569-1.146 2.674-1.146 1.278 0 2.246.491 2.886 1.474L12 6.585l.622-1.043c.64-.983 1.608-1.474 2.886-1.474 1.104 0 1.994.388 2.674 1.146.658.757.986 1.781.986 3.07v6.304z"/>
  </symbol>
  <symbol id="link" viewBox="0 0 20 21">
    <path d="M10 1.658L7.73 4.04c1.316-.275 2.994-.068 3.865.364l.494-.518c1.06-1.123 3.15-1.106 4.21 0 1.05 1.105 1.03 3.333 0 4.42l-3.16 3.317c-1.04 1.088-3.16 1.105-4.21 0-.38-.398-.63-.898-.76-1.417l-2.25 2.366c.26.45.56.864.92 1.244 2.1 2.21 6.3 2.228 8.4.017l3.18-3.333c2.1-2.21 2.1-6.632 0-8.842-2.11-2.21-6.32-2.21-8.42 0zM8.405 16.596l-.494.518c-1.06 1.123-3.15 1.106-4.21 0-1.05-1.105-1.03-3.333 0-4.42l3.16-3.317c1.04-1.088 3.16-1.105 4.21 0 .38.398.63.898.76 1.417l2.26-2.366c-.26-.45-.56-.864-.92-1.244-2.1-2.21-6.3-2.228-8.4-.017L1.58 10.5c-2.106 2.21-2.106 6.632 0 8.842 2.104 2.21 6.315 2.21 8.42 0l2.27-2.383c-1.316.27-2.994.06-3.865-.37z"/>
  </symbol>
  <symbol id="tutorial" viewBox="0 0 17 20">
    <path d="M6.375 7.143l-3.542 3.57 3.542 3.573 1.417-1.43-2.125-2.142L7.792 8.57 6.375 7.144zM9.208 8.57l2.125 2.144-2.125 2.143 1.417 1.43 3.542-3.573-3.542-3.57L9.208 8.57zM12.75 0H0v20h17V4.286L12.75 0zm2.833 18.57H1.417V1.43h9.916l4.25 4.284V18.57z"/>
  </symbol>
  <symbol id="project" viewBox="0 0 20 18">
    <path d="M7.143 1.5H8.57V3H7.144V1.5zm-2.857 0h1.428V3H4.286V1.5zm-2.857 0h1.42V3H1.43V1.5zm17.14 15H1.43v-12h17.14v12zm0-13.5H10V1.5h8.57V3zM20 1.5c0-.83-.64-1.5-1.43-1.5H1.43C.64 0 0 .67 0 1.5v15c0 .83.64 1.5 1.43 1.5h17.14c.79 0 1.43-.67 1.43-1.5v-15z"/>
  </symbol>
  <symbol id="experiment" viewBox="0 -.3 14 20.6">
    <path d="M7 0C3.134 0 0 3.198 0 7.143c0 2.337 1.1 4.41 2.8 5.714v4.286c0 .79.627 1.428 1.4 1.428 0 .79.627 1.43 1.4 1.43h2.8c.773 0 1.4-.64 1.4-1.43.773 0 1.4-.63 1.4-1.42v-4.29c1.7-1.3 2.8-3.38 2.8-5.71C14 3.2 10.866 0 7 0zm2.8 16.43c0 .393-.313.713-.7.713H4.9c-.387 0-.7-.32-.7-.714v-.72h5.6v.71zm1.4-5.508c-.727.737-1.4.946-1.4 2.77v.594H8.4V11.43l2.8-2.86V7.144l-1.4-1.43-1.4 1.43L7 5.714l-1.4 1.43-1.4-1.43-1.4 1.43V8.57l2.8 2.86v2.856H4.2v-.595c0-1.82-.673-2.03-1.4-2.76-.87-1.01-1.4-2.33-1.4-3.78 0-3.16 2.507-5.72 5.6-5.72 3.093 0 5.6 2.56 5.6 5.72 0 1.45-.53 2.77-1.4 3.78zM7 11.43L4.2 8.57V7.144L5.6 8.57 7 7.144 8.4 8.57l1.4-1.427V8.57L7 11.43z"/>
  </symbol>
  <symbol id="article" viewBox="0 0 17 20">
    <path d="M9.917 4.286H2.833v1.428h7.084V4.286zM12.75 0H0v20h17V4.286L12.75 0zm2.833 18.57H1.417V1.43h9.916l4.25 4.284V18.57zm-12.75-2.856h11.334v-1.428H2.833v1.428zm0-2.857h11.334V11.43H2.833v1.427zm0-2.857h11.334V8.57H2.833V10z"/>
  </symbol>
  <symbol id="person" viewBox="0 0 10 21">
    <path d="M8.75 4.25C8.75 2.18 7.072.5 5 .5S1.25 2.18 1.25 4.25C1.25 6.322 2.928 8 5 8s3.75-1.678 3.75-3.75zM5 6.75c-1.38 0-2.5-1.12-2.5-2.5s1.12-2.5 2.5-2.5 2.5 1.12 2.5 2.5-1.12 2.5-2.5 2.5zM7.5 8h-5C1.12 8 0 9.12 0 10.5V13c0 1.38 1.12 2.5 2.5 2.5v5h5v-5c1.38 0 2.5-1.12 2.5-2.5v-2.5C10 9.12 8.88 8 7.5 8zm1.25 5c0 .69-.56 1.25-1.25 1.25v-2.5H6.25v7.5h-2.5v-7.5H2.5v2.5c-.69 0-1.25-.56-1.25-1.25v-2.5c0-.69.56-1.25 1.25-1.25h5c.69 0 1.25.56 1.25 1.25V13z"/>
  </symbol>
  <symbol id="discuss" viewBox="0 0 20 19">
    <path d="M5.714 4.385H1.43c-.716 0-1.43.73-1.43 1.46v7.31c0 .73.714 1.46 1.43 1.46h1.427V19l4.33-4.385h4.286c.67 0 1.384-.73 1.384-1.46V11.69H8.57c-1.427 0-2.856-1.46-2.856-2.923V4.384zM8.57 0c-.713 0-1.427.73-1.427 1.462V8.77c0 .73.714 1.46 1.428 1.46h4.25l4.33 4.385V10.23h1.43c.72 0 1.43-.73 1.43-1.46V1.46C20 .732 19.29 0 18.57 0h-10z"/>
  </symbol>
  <symbol id="email" fill-rule="evenodd" viewBox="0 0 20 20">
    <path d="M19 2.3V0H1v2.3l-1-.8v16h20v-16l-1 .8zm-.5.4V.5h-17v2.2L10 9.5l8.5-6.8z"/>
  </symbol>
  <symbol id="rss" viewBox="0 0 20 20">
    <path fill="#FFA500" d="M16 20C16 11.22 8.78 4 0 4V0c10.97 0 20 9.03 20 20h-4zM2.74 14.51a2.75 2.75 0 1 1 0 5.5 2.75 2.75 0 0 1 0-5.5zM13.26 20H9.37A9.41 9.41 0 0 0 0 10.63V6.74c7.27 0 13.26 5.99 13.26 13.26z"/>
  </symbol>  
  <symbol id="flux" viewBox="-.4 0 16 16">
    <g fill-rule="evenodd">
      <path d="M7 7h2v6H7z"/>
      <path d="M8 15c.552 0 1-.448 1-1s-.448-1-1-1-1 .448-1 1 .448 1 1 1zm0 1c-1.105 0-2-.895-2-2s.895-2 2-2 2 .895 2 2-.895 2-2 2zm.643-8.234L7.357 6.234l4.596-3.857L13.24 3.91z"/>
      <path d="M14.128 1.858c-.355-.423-.985-.48-1.408-.124-.424.355-.48.986-.124 1.41.355.422.986.478 1.41.123.422-.355.477-.986.122-1.41zm.766-.643c.71.846.6 2.108-.246 2.818s-2.108.6-2.818-.247c-.71-.846-.6-2.108.247-2.818.846-.71 2.107-.6 2.817.247z"/>
      <g>
        <path d="M8.643 6.234L7.357 7.766 2.76 3.91l1.287-1.533z"/>
        <path d="M1.872 1.858c-.355.423-.3 1.054.123 1.41.423.354 1.054.298 1.41-.125.354-.423.3-1.054-.125-1.41-.423-.354-1.053-.298-1.408.125zm-.766-.643C1.816.37 3.076.258 3.923.968c.846.71.957 1.972.247 2.818-.71.846-1.972.957-2.818.247-.846-.71-.956-1.972-.246-2.818z"/>
      </g>
    </g>
  </symbol>
</svg>
